<?xml version="1.0" encoding="UTF-8"?>
<svg width="150px" height="45px" viewBox="0 0 150 45" version="1.1" xmlns="http://www.w3.org/2000/svg" xmlns:xlink="http://www.w3.org/1999/xlink">
    <title>Amazon</title>
    <g id="Amazon" stroke="none" stroke-width="1" fill="none" fill-rule="evenodd">
        <g id="Logo" transform="translate(5.000000, 5.000000)" fill-rule="nonzero">
            <path d="M86.4,26.5 C78.1,32.6 66.1,35.8 55.8,35.8 C41.3,35.8 28.4,30.7 18.9,22.1 C18.3,21.5 18.8,20.7 19.5,21.1 C29.8,27 42.4,30.5 55.4,30.5 C64.2,30.5 73.9,28.7 82.7,25 C84,24.4 85.1,25.8 86.4,26.5 Z" id="Path" fill="#FF9900"></path>
            <path d="M89.7,22.7 C88.8,21.5 83,22.3 80.4,22.7 C79.6,22.8 79.5,22.1 80.2,21.6 C84.9,18.3 92.5,19.3 93.3,20.3 C94.1,21.3 93.1,28.9 88.7,32.6 C88,33.2 87.4,32.9 87.7,32.2 C88.7,29.7 90.6,23.9 89.7,22.7 Z" id="Path" fill="#FF9900"></path>
            <path d="M80.4,6.8 L80.4,3.5 C80.4,3 80.8,2.7 81.2,2.7 L95.3,2.7 C95.8,2.7 96.1,3.1 96.1,3.5 L96.1,6.3 C96.1,6.7 95.7,7.2 95.1,8 L87.9,18.1 C90.4,18 93.1,18.4 95.4,19.7 C96,20 96.2,20.5 96.2,20.9 L96.2,24.2 C96.2,24.7 95.7,25.2 95.2,24.9 C91.1,22.7 85.7,22.5 81.3,24.9 C80.8,25.2 80.3,24.7 80.3,24.2 L80.3,21.1 C80.3,20.6 80.3,19.8 80.8,19.1 L89.1,7.6 L81.2,7.6 C80.7,7.6 80.4,7.2 80.4,6.8 Z" id="Path" fill="#232F3E"></path>
            <path d="M29.3,19.4 L24.9,19.4 C24.5,19.4 24.1,19 24.1,18.6 L24.1,3.6 C24.1,3.2 24.5,2.8 25,2.8 L29.1,2.8 C29.5,2.8 29.9,3.2 29.9,3.6 L29.9,6.5 L30,6.5 C31.1,3.5 33.3,2.2 36.2,2.2 C39.1,2.2 40.9,3.5 42.3,6.5 C43.4,3.5 46,2.2 48.7,2.2 C50.7,2.2 52.9,3 54.3,4.8 C55.9,6.8 55.6,9.7 55.6,12.3 L55.6,18.5 C55.6,18.9 55.2,19.3 54.7,19.3 L50.3,19.3 C49.9,19.3 49.5,18.9 49.5,18.5 L49.5,13.5 C49.5,12.8 49.6,10.5 49.4,9.8 C49.1,8.6 48.3,8.2 47.3,8.2 C46.5,8.2 45.6,8.8 45.3,9.7 C45,10.6 45,12.3 45,13.5 L45,18.5 C45,18.9 44.6,19.3 44.1,19.3 L39.7,19.3 C39.3,19.3 38.9,18.9 38.9,18.5 L38.9,13.5 C38.9,11.5 39.2,8.1 36.6,8.1 C34,8.1 34.1,11.3 34.1,13.5 L34.1,18.5 C34.1,18.9 33.7,19.3 33.2,19.3 L28.8,19.3 C28.4,19.3 28,18.9 28,18.5 L28,3.6 C28,3.2 28.4,2.8 28.9,2.8 L33,2.8 C33.4,2.8 33.8,3.2 33.8,3.6 L33.8,6.5 L33.9,6.5 C35,3.5 37.2,2.2 40.1,2.2 C43,2.2 44.8,3.5 46.2,6.5 C47.3,3.5 49.9,2.2 52.6,2.2 C54.6,2.2 56.8,3 58.2,4.8 C59.8,6.8 59.5,9.7 59.5,12.3 L59.5,18.5 C59.5,18.9 59.1,19.3 58.6,19.3 L54.2,19.3 C53.8,19.3 53.4,18.9 53.4,18.5 L53.4,13.5 C53.4,11.5 53.7,8.1 51.1,8.1 C48.5,8.1 48.6,11.3 48.6,13.5 L48.6,18.5 C48.6,18.9 48.2,19.3 47.7,19.3 L43.3,19.3 C42.9,19.3 42.5,18.9 42.5,18.5 L42.5,13.5 C42.5,11.5 42.8,8.1 40.2,8.1 C37.6,8.1 37.7,11.3 37.7,13.5 L37.7,18.5 C37.7,18.9 37.3,19.3 36.8,19.3 L32.4,19.3 C32,19.3 31.6,18.9 31.6,18.5 L31.6,3.6 C31.6,3.2 32,2.8 32.5,2.8 L36.6,2.8 C37,2.8 37.4,3.2 37.4,3.6 L37.4,6.5 L37.5,6.5 C38.6,3.5 40.8,2.2 43.7,2.2 L29.3,19.4 Z" id="Path" fill="#232F3E"></path>
            <path d="M104.7,19.4 L100.3,19.4 C99.9,19.4 99.5,19 99.5,18.6 L99.5,3.6 C99.5,3.2 99.9,2.8 100.4,2.8 L104.5,2.8 C104.9,2.8 105.2,3.1 105.3,3.5 L105.3,6.8 L105.4,6.8 C106.7,3.6 108.6,2.2 111.7,2.2 C113.8,2.2 115.9,3 117.3,5.2 C118.6,7.2 118.6,10.4 118.6,12.7 L118.6,18.7 C118.6,19.1 118.2,19.5 117.7,19.5 L113.3,19.5 C112.9,19.5 112.5,19.1 112.5,18.7 L112.5,13.4 C112.5,11.4 112.7,8 110.1,8 C109.2,8 108.4,8.6 108,9.5 C107.6,10.4 107.5,11.3 107.5,12.3 L107.5,18.6 C107.5,19 107.1,19.4 106.6,19.4 L104.7,19.4 Z" id="Path" fill="#232F3E"></path>
            <path d="M62.9,2.2 C68.8,2.2 71.9,7.2 71.9,13.5 C71.9,19.6 68.5,24.5 62.9,24.5 C57.1,24.5 54.1,19.5 54.1,13.3 C54.1,7.1 57.2,2.2 62.9,2.2 Z M62.9,7.7 C60.1,7.7 59.9,11.4 59.9,13.8 C59.9,16.2 59.8,19 62.9,19 C66,19 66.1,15.3 66.1,13.7 C66.1,12 66,10.1 65.5,8.5 C65.1,7.9 64.3,7.7 62.9,7.7 Z" id="Shape" fill="#232F3E"></path>
            <path d="M123.9,19.4 L119.6,19.4 C119.2,19.4 118.8,19 118.8,18.6 L118.8,3.5 C118.8,3.1 119.2,2.7 119.7,2.7 L123.8,2.7 C124.2,2.7 124.5,3 124.6,3.4 L124.6,7.1 L124.7,7.1 C126,4.2 127.7,2.7 130.8,2.7 C132.9,2.7 135,3.5 136.4,5.7 C137.7,7.7 137.7,10.9 137.7,13.2 L137.7,18.7 C137.7,19.1 137.3,19.5 136.8,19.5 L132.4,19.5 C132,19.5 131.7,19.1 131.6,18.7 L131.6,13.4 C131.6,11.4 131.8,7.9 129.2,7.9 C128.3,7.9 127.5,8.5 127.1,9.4 C126.7,10.3 126.6,11.2 126.6,12.2 L126.6,18.5 C126.6,18.9 126.2,19.3 125.7,19.3 L123.9,19.4 Z" id="Path" fill="#232F3E"></path>
            <path d="M71.3,19.4 L66.9,19.4 C66.5,19.4 66.1,19 66.1,18.6 L66.1,3.5 C66.1,3.1 66.5,2.7 67,2.7 L71.1,2.7 C71.5,2.7 71.8,3 71.9,3.4 L71.9,7.1 L72,7.1 C73.3,4.2 75,2.7 78.1,2.7 C80.2,2.7 82.3,3.5 83.7,5.7 C85,7.7 85,10.9 85,13.2 L85,18.7 C85,19.1 84.6,19.5 84.1,19.5 L79.7,19.5 C79.3,19.5 79,19.1 78.9,18.7 L78.9,13.4 C78.9,11.4 79.1,7.9 76.5,7.9 C75.6,7.9 74.8,8.5 74.4,9.4 C74,10.3 73.9,11.2 73.9,12.2 L73.9,18.5 C73.9,18.9 73.5,19.3 73,19.3 L71.3,19.4 Z" id="Path" fill="#232F3E"></path>
            <path d="M69.5,19.4 C69.1,19.4 68.7,19 68.7,18.6 L68.7,3.5 C68.7,3.1 69.1,2.7 69.6,2.7 L74,2.7 C74.4,2.7 74.8,3.1 74.8,3.5 L74.8,18.6 C74.8,19 74.4,19.4 73.9,19.4 L69.5,19.4 Z" id="Path" fill="#232F3E"></path>
            <path d="M71.8,0 C73.3,0 74.5,1.2 74.5,2.7 C74.5,4.2 73.3,5.4 71.8,5.4 C70.3,5.4 69.1,4.2 69.1,2.7 C69.1,1.2 70.3,0 71.8,0 Z" id="Path" fill="#232F3E"></path>
        </g>
    </g>
</svg>