<?xml version="1.0" encoding="UTF-8"?>
<svg width="150px" height="50px" viewBox="0 0 150 50" version="1.1" xmlns="http://www.w3.org/2000/svg" xmlns:xlink="http://www.w3.org/1999/xlink">
    <title>Google</title>
    <g id="Google" stroke="none" stroke-width="1" fill="none" fill-rule="evenodd">
        <g id="Logo" transform="translate(10.000000, 10.000000)">
            <path d="M27.3,12.5 L27.3,18.5 L33.3,18.5 C33,20.5 31.3,23.5 27.3,23.5 C23.8,23.5 21,20.6 21,17 C21,13.4 23.8,10.5 27.3,10.5 C29.3,10.5 30.7,11.3 31.5,12.1 L36.1,7.7 C33.6,5.4 30.7,4 27.3,4 C20.2,4 14.5,9.7 14.5,17 C14.5,24.3 20.2,30 27.3,30 C34.8,30 40,24.5 40,17.3 C40,16.5 39.9,15.5 39.8,14.5 L27.3,14.5 L27.3,12.5 Z" id="Path" fill="#4285F4"></path>
            <path d="M85.5,17 C85.5,23.8 80.3,29 73.5,29 C66.7,29 61.5,23.8 61.5,17 C61.5,10.1 66.7,5 73.5,5 C80.3,5 85.5,10.1 85.5,17 Z M79.5,17 C79.5,13.3 76.8,10.5 73.5,10.5 C70.2,10.5 67.5,13.3 67.5,17 C67.5,20.6 70.2,23.5 73.5,23.5 C76.8,23.5 79.5,20.7 79.5,17 Z" id="Shape" fill="#EA4335" fill-rule="nonzero"></path>
            <path d="M120.5,17 C120.5,23.8 115.3,29 108.5,29 C101.7,29 96.5,23.8 96.5,17 C96.5,10.1 101.7,5 108.5,5 C115.3,5 120.5,10.1 120.5,17 Z M114.5,17 C114.5,13.3 111.8,10.5 108.5,10.5 C105.2,10.5 102.5,13.3 102.5,17 C102.5,20.6 105.2,23.5 108.5,23.5 C111.8,23.5 114.5,20.7 114.5,17 Z" id="Shape" fill="#FBBC05" fill-rule="nonzero"></path>
            <path d="M52.5,23.3 C49.5,23.3 47,21.3 46.3,18.6 L46.2,18.2 L59.9,12.5 L59.7,13 C59,15.9 56.1,23.3 52.5,23.3 Z M51.8,10.4 C53.7,10.4 55.4,11.2 56.5,12.5 L51.2,15.7 C50.9,13.7 52.5,10.4 51.8,10.4 Z" id="Shape" fill="#4285F4" fill-rule="nonzero"></path>
            <path d="M51.5,5 C46.3,5 41.8,8.3 40.5,13.2 L47,16.2 C47.8,13.8 49.5,12 51.5,12 C53.5,12 54.8,13.2 55.3,14.8 L61.8,11.8 C60.3,7.8 56.3,5 51.5,5 Z" id="Path" fill="#EA4335"></path>
            <path d="M51.5,23.5 C56.3,23.5 60.3,20.7 61.8,16.7 L55.3,13.7 C54.5,15.5 53.2,16.5 51.5,16.5 L51.5,23.5 Z" id="Path" fill="#34A853"></path>
            <path d="M40.5,20.8 C40.8,22 41.3,23.2 42,24.2 L48.5,21.2 C47.5,19.8 47,18.2 47,16.5 L40.5,13.5 L40.5,20.8 Z" id="Path" fill="#FBBC05"></path>
            <path d="M127.5,6 L127.5,28 L133.5,28 L133.5,6 L127.5,6 Z" id="Path" fill="#34A853"></path>
        </g>
    </g>
</svg>