<?xml version="1.0" encoding="UTF-8"?>
<svg width="150px" height="32px" viewBox="0 0 150 32" version="1.1" xmlns="http://www.w3.org/2000/svg" xmlns:xlink="http://www.w3.org/1999/xlink">
    <title>Microsoft</title>
    <g id="Microsoft" stroke="none" stroke-width="1" fill="none" fill-rule="evenodd">
        <g id="Logo" transform="translate(0.000000, 2.000000)">
            <rect id="Red" fill="#F25022" x="0" y="0" width="13" height="13"></rect>
            <rect id="Green" fill="#7FBA00" x="15" y="0" width="13" height="13"></rect>
            <rect id="Blue" fill="#00A4EF" x="0" y="15" width="13" height="13"></rect>
            <rect id="Yellow" fill="#FFB900" x="15" y="15" width="13" height="13"></rect>
            <path d="M38,6 L38,22 L41,22 L41,15.5 L45.5,15.5 C48.5,15.5 51,13.2 51,10.5 C51,7.8 48.5,6 45.5,6 L38,6 Z M45.2,12.5 L41,12.5 L41,9 L45.2,9 C46.3,9 47.2,9.7 47.2,10.8 C47.2,11.8 46.3,12.5 45.2,12.5 Z M52,6 L52,22 L55,22 L55,6 L52,6 Z M63.1,6 L57,6 L57,22 L63.1,22 C68.6,22 72,18.5 72,14 C72,9.5 68.6,6 63.1,6 Z M62.9,19 L60,19 L60,9 L62.9,9 C66.1,9 68.2,11.2 68.2,14 C68.2,16.8 66.1,19 62.9,19 Z M80,6 L73,6 L73,22 L76,22 L76,17 L80,17 C83.3,17 86,14.8 86,11.5 C86,8.2 83.3,6 80,6 Z M79.7,14 L76,14 L76,9 L79.7,9 C81.1,9 82.2,10 82.2,11.5 C82.2,13 81.1,14 79.7,14 Z M87,6 L87,22 L97,22 L97,19 L90,19 L90,15.5 L96,15.5 L96,12.5 L90,12.5 L90,9 L97,9 L97,6 L87,6 Z M106,9 L106,6 L98,6 L98,22 L106,22 L106,19 L101,19 L101,15.5 L105,15.5 L105,12.5 L101,12.5 L101,9 L106,9 Z M114,6 L107,6 L107,22 L110,22 L110,17 L114,17 C117.3,17 120,14.8 120,11.5 C120,8.2 117.3,6 114,6 Z M113.7,14 L110,14 L110,9 L113.7,9 C115.1,9 116.2,10 116.2,11.5 C116.2,13 115.1,14 113.7,14 Z M121,6 L121,22 L124,22 L124,15.5 L130,22 L134,22 L127,14.5 L133.5,6 L129.5,6 L124,13.5 L124,6 L121,6 Z" id="MICROSOFT" fill="#737373" fill-rule="nonzero"></path>
        </g>
    </g>
</svg>