<?xml version="1.0" encoding="UTF-8"?>
<svg width="24px" height="24px" viewBox="0 0 24 24" version="1.1" xmlns="http://www.w3.org/2000/svg" xmlns:xlink="http://www.w3.org/1999/xlink">
    <title>Lightbulb</title>
    <g id="Lightbulb" stroke="none" stroke-width="1" fill="none" fill-rule="evenodd">
        <path d="M12,2 C15.866,2 19,5.134 19,9 C19,11.387 17.718,13.5 15.698,14.7 L15.5,14.833 L15.5,17 C15.5,17.276 15.276,17.5 15,17.5 L9,17.5 C8.724,17.5 8.5,17.276 8.5,17 L8.5,14.833 C6.216,13.499 5,11.284 5,9 C5,5.134 8.134,2 12,2 Z M13.5,18.5 L13.5,19 C13.5,19.276 13.276,19.5 13,19.5 L11,19.5 C10.724,19.5 10.5,19.276 10.5,19 L10.5,18.5 L13.5,18.5 Z M12,4 C9.239,4 7,6.239 7,9 C7,10.777 8.057,12.452 9.789,13.36 L10.5,13.737 L10.5,15.5 L13.5,15.5 L13.5,13.737 C15.393,12.67 17,10.87 17,9 C17,6.239 14.761,4 12,4 Z" id="Shape" fill="#FFFFFF" fill-rule="nonzero"></path>
    </g>
</svg>