<?xml version="1.0" encoding="UTF-8"?>
<svg width="24px" height="24px" viewBox="0 0 24 24" version="1.1" xmlns="http://www.w3.org/2000/svg" xmlns:xlink="http://www.w3.org/1999/xlink">
    <title>Palette</title>
    <g id="Palette" stroke="none" stroke-width="1" fill="none" fill-rule="evenodd">
        <path d="M12,2 C17.523,2 22,6.477 22,12 C22,13.657 20.657,15 19,15 L17.5,15 C16.672,15 16,15.672 16,16.5 C16,17.328 16.672,18 17.5,18 L18,18 C18.276,18 18.5,18.224 18.5,18.5 C18.5,18.776 18.276,19 18,19 L17.5,19 C16.12,19 15,17.88 15,16.5 C15,15.12 16.12,14 17.5,14 L19,14 C20.105,14 21,13.105 21,12 C21,7.029 16.971,3 12,3 C7.029,3 3,7.029 3,12 C3,16.971 7.029,21 12,21 C12.276,21 12.5,21.224 12.5,21.5 C12.5,21.776 12.276,22 12,22 C6.477,22 2,17.523 2,12 C2,6.477 6.477,2 12,2 Z M7.5,14 C8.328,14 9,14.672 9,15.5 C9,16.328 8.328,17 7.5,17 C6.672,17 6,16.328 6,15.5 C6,14.672 6.672,14 7.5,14 Z M16.5,9 C17.328,9 18,9.672 18,10.5 C18,11.328 17.328,12 16.5,12 C15.672,12 15,11.328 15,10.5 C15,9.672 15.672,9 16.5,9 Z M7.5,7 C8.328,7 9,7.672 9,8.5 C9,9.328 8.328,10 7.5,10 C6.672,10 6,9.328 6,8.5 C6,7.672 6.672,7 7.5,7 Z M12,5 C12.828,5 13.5,5.672 13.5,6.5 C13.5,7.328 12.828,8 12,8 C11.172,8 10.5,7.328 10.5,6.5 C10.5,5.672 11.172,5 12,5 Z" id="Shape" fill="#FFFFFF" fill-rule="nonzero"></path>
    </g>
</svg>