<svg width="80" height="30" viewBox="0 0 80 30" fill="none" xmlns="http://www.w3.org/2000/svg">
  <path d="M15 5H65C68.866 5 72 8.13401 72 12V18C72 21.866 68.866 25 65 25H15C11.134 25 8 21.866 8 18V12C8 8.13401 11.134 5 15 5Z" fill="#F5F5F5"/>
  <path d="M40 8C45.5228 8 50 12.4772 50 18C50 23.5228 45.5228 28 40 28C34.4772 28 30 23.5228 30 18C30 12.4772 34.4772 8 40 8Z" fill="#E61A27"/>
  <path d="M36 14H44V16H36V14Z" fill="white"/>
  <path d="M36 17H44V19H36V17Z" fill="white"/>
  <path d="M36 20H44V22H36V20Z" fill="white"/>
</svg>

